<?xml version="1.0" ?>
<!-- Uploaded to: SVG Repo, www.svgrepo.com, Generator: SVG Repo Mixer Tools -->
<svg width="800px" height="800px" viewBox="0 0 64 64" id="Layer_1" version="1.1" xml:space="preserve" xmlns="http://www.w3.org/2000/svg" xmlns:xlink="http://www.w3.org/1999/xlink">
<style type="text/css">
	.st0{fill:#FFFFFF;}
	.st1{fill:#101820;}
</style>
<g>
<g>
<circle class="st0" cx="32" cy="32" r="32"/>
</g>
<g>
<path class="st1" d="M56.001,42c-0.034,0-0.068-0.003-0.103-0.011l-10.117-2.108c-9.145-1.904-18.418-1.904-27.563,0L8.102,41.989    c-0.267,0.057-0.535-0.117-0.591-0.387c-0.057-0.271,0.117-0.535,0.388-0.591l10.117-2.108c9.279-1.934,18.689-1.934,27.969,0    l10.117,2.108c0.271,0.056,0.444,0.321,0.388,0.591C56.44,41.838,56.232,42,56.001,42z"/>
</g>
<g>
<path class="st1" d="M43,46H21c-0.276,0-0.5-0.224-0.5-0.5v-4c0-0.276,0.224-0.5,0.5-0.5h22c0.276,0,0.5,0.224,0.5,0.5v4    C43.5,45.776,43.276,46,43,46z M21.5,45h21v-3h-21V45z"/>
</g>
<g>
<path class="st1" d="M44,46H20c-0.276,0-0.5-0.224-0.5-0.5S19.724,45,20,45h24c0.276,0,0.5,0.224,0.5,0.5S44.276,46,44,46z"/>
</g>
<g>
<path class="st1" d="M9,49.709c-0.118,0-0.237-0.042-0.333-0.126c-0.206-0.184-0.224-0.5-0.04-0.706    c3.06-3.436,7.742-4.919,10.261-5.498c0.277-0.065,0.538,0.107,0.6,0.375c0.062,0.269-0.106,0.537-0.375,0.599    c-2.403,0.552-6.863,1.959-9.739,5.188C9.274,49.652,9.138,49.709,9,49.709z"/>
</g>
<g>
<path class="st1" d="M55,49.709c-0.138,0-0.274-0.057-0.373-0.167c-2.876-3.229-7.336-4.636-9.739-5.188    c-0.269-0.062-0.437-0.33-0.375-0.599c0.062-0.268,0.321-0.44,0.6-0.375c2.519,0.578,7.201,2.062,10.261,5.498    c0.184,0.206,0.166,0.522-0.04,0.706C55.237,49.667,55.118,49.709,55,49.709z"/>
</g>
<g>
<path class="st1" d="M23,46c-0.276,0-0.5-0.224-0.5-0.5v-5c0-0.276,0.224-0.5,0.5-0.5s0.5,0.224,0.5,0.5v5    C23.5,45.776,23.276,46,23,46z"/>
</g>
<g>
<path class="st1" d="M25,46c-0.276,0-0.5-0.224-0.5-0.5v-5c0-0.276,0.224-0.5,0.5-0.5s0.5,0.224,0.5,0.5v5    C25.5,45.776,25.276,46,25,46z"/>
</g>
<g>
<path class="st1" d="M27,46c-0.276,0-0.5-0.224-0.5-0.5v-5c0-0.276,0.224-0.5,0.5-0.5s0.5,0.224,0.5,0.5v5    C27.5,45.776,27.276,46,27,46z"/>
</g>
<g>
<path class="st1" d="M29,46c-0.276,0-0.5-0.224-0.5-0.5v-5c0-0.276,0.224-0.5,0.5-0.5s0.5,0.224,0.5,0.5v5    C29.5,45.776,29.276,46,29,46z"/>
</g>
<g>
<path class="st1" d="M31,46c-0.276,0-0.5-0.224-0.5-0.5v-5c0-0.276,0.224-0.5,0.5-0.5s0.5,0.224,0.5,0.5v5    C31.5,45.776,31.276,46,31,46z"/>
</g>
<g>
<path class="st1" d="M33,46c-0.276,0-0.5-0.224-0.5-0.5v-5c0-0.276,0.224-0.5,0.5-0.5s0.5,0.224,0.5,0.5v5    C33.5,45.776,33.276,46,33,46z"/>
</g>
<g>
<path class="st1" d="M35,46c-0.276,0-0.5-0.224-0.5-0.5v-5c0-0.276,0.224-0.5,0.5-0.5s0.5,0.224,0.5,0.5v5    C35.5,45.776,35.276,46,35,46z"/>
</g>
<g>
<path class="st1" d="M37,46c-0.276,0-0.5-0.224-0.5-0.5v-5c0-0.276,0.224-0.5,0.5-0.5s0.5,0.224,0.5,0.5v5    C37.5,45.776,37.276,46,37,46z"/>
</g>
<g>
<path class="st1" d="M39,46c-0.276,0-0.5-0.224-0.5-0.5v-5c0-0.276,0.224-0.5,0.5-0.5s0.5,0.224,0.5,0.5v5    C39.5,45.776,39.276,46,39,46z"/>
</g>
<g>
<path class="st1" d="M41,46c-0.276,0-0.5-0.224-0.5-0.5v-5c0-0.276,0.224-0.5,0.5-0.5s0.5,0.224,0.5,0.5v5    C41.5,45.776,41.276,46,41,46z"/>
</g>
<g>
<path class="st1" d="M45,51c-0.276,0-0.5-0.224-0.5-0.5c0-0.873-4.293-2.5-12.5-2.5s-12.5,1.627-12.5,2.5    c0,0.276-0.224,0.5-0.5,0.5s-0.5-0.224-0.5-0.5c0-2.568,8.073-3.5,13.5-3.5s13.5,0.932,13.5,3.5C45.5,50.776,45.276,51,45,51z"/>
</g>
<g>
<path class="st1" d="M56,37H43c-0.276,0-0.5-0.224-0.5-0.5S42.724,36,43,36h13c0.276,0,0.5,0.224,0.5,0.5S56.276,37,56,37z"/>
</g>
<g>
<path class="st1" d="M41,37H8c-0.276,0-0.5-0.224-0.5-0.5S7.724,36,8,36h33c0.276,0,0.5,0.224,0.5,0.5S41.276,37,41,37z"/>
</g>
<g>
<path class="st1" d="M12,21H8c-0.276,0-0.5-0.224-0.5-0.5S7.724,20,8,20h4c0.276,0,0.5,0.224,0.5,0.5S12.276,21,12,21z"/>
</g>
<g>
<path class="st1" d="M32,22c-0.276,0-0.5-0.224-0.5-0.5c0-0.827-0.673-1.5-1.5-1.5c-0.534,0-1.032,0.287-1.3,0.75    c-0.138,0.24-0.446,0.322-0.683,0.182c-0.239-0.138-0.321-0.444-0.183-0.683C28.28,19.479,29.11,19,30,19    c1.379,0,2.5,1.122,2.5,2.5C32.5,21.776,32.276,22,32,22z"/>
</g>
<g>
<path class="st1" d="M32,22c-0.276,0-0.5-0.224-0.5-0.5c0-1.378,1.121-2.5,2.5-2.5c0.89,0,1.72,0.479,2.165,1.249    c0.139,0.239,0.057,0.545-0.183,0.683c-0.237,0.139-0.544,0.058-0.683-0.182C35.032,20.287,34.534,20,34,20    c-0.827,0-1.5,0.673-1.5,1.5C32.5,21.776,32.276,22,32,22z"/>
</g>
<g>
<path class="st1" d="M33,22h-2c-0.276,0-0.5-0.224-0.5-0.5S30.724,21,31,21h2c0.276,0,0.5,0.224,0.5,0.5S33.276,22,33,22z"/>
</g>
<g>
<path class="st1" d="M53,11h-4c-0.276,0-0.5-0.224-0.5-0.5S48.724,10,49,10h4c0.276,0,0.5,0.224,0.5,0.5S53.276,11,53,11z"/>
</g>
<g>
<path class="st1" d="M47.766,35c-0.245,0-0.46-0.181-0.494-0.431C46.536,29.274,43.263,12,32,12S17.464,29.274,16.729,34.569    c-0.037,0.274-0.302,0.469-0.563,0.426c-0.273-0.038-0.465-0.291-0.427-0.564C16.501,28.935,19.93,11,32,11    s15.499,17.935,16.262,23.431c0.038,0.273-0.153,0.526-0.427,0.564C47.813,34.999,47.789,35,47.766,35z"/>
</g>
<g>
<path class="st1" d="M51.813,35c-0.249,0-0.466-0.187-0.495-0.441C50.636,28.797,47.226,10,32,10S13.364,28.797,12.682,34.559    c-0.031,0.274-0.285,0.474-0.555,0.438c-0.274-0.033-0.471-0.281-0.438-0.555C12.396,28.473,15.949,9,32,9    s19.604,19.473,20.311,25.441c0.033,0.274-0.163,0.522-0.438,0.555C51.854,34.999,51.833,35,51.813,35z"/>
</g>
</g>
</svg>