<svg width="390" height="390" viewBox="0 0 390 390" fill="none" xmlns="http://www.w3.org/2000/svg">
<g clip-path="url(#clip0_201_2)">
<path d="M145.407 248.988L142.632 275.197C142.408 277.312 143.092 279.422 144.515 281.003C145.937 282.584 147.964 283.486 150.091 283.486H229.392C231.518 283.486 233.545 282.583 234.968 281.003C236.39 279.422 237.074 277.312 236.851 275.197L234.076 248.988H332.853C348.227 248.988 360.734 236.481 360.734 221.107V27.881C360.733 12.507 348.225 0 332.852 0H40.63C25.256 0 12.749 12.507 12.749 27.881V221.107C12.749 236.481 25.256 248.988 40.63 248.988H145.407ZM221.055 268.487H158.426L160.49 248.988H218.99L221.055 268.487ZM40.63 15H332.852C339.955 15 345.733 20.778 345.733 27.881V197.99H27.749V27.881C27.749 20.778 33.527 15 40.63 15ZM27.749 221.107V212.99H345.732V221.107C345.732 228.21 339.954 233.988 332.851 233.988H40.63C33.527 233.988 27.749 228.21 27.749 221.107Z" fill="white"/>
<path d="M332.645 333.876C334.005 331.636 334.098 328.849 332.889 326.524L318.076 298.025C316.785 295.542 314.22 293.984 311.421 293.984H62.061C59.263 293.984 56.697 295.542 55.406 298.025L40.593 326.524C39.385 328.849 39.477 331.636 40.837 333.876C42.197 336.116 44.628 337.483 47.248 337.483H326.234C328.854 337.484 331.285 336.116 332.645 333.876ZM59.599 322.484L66.615 308.985H306.866L313.883 322.484H59.599Z" fill="white"/>
<path d="M345.733 350.982H333.733C316.365 350.982 302.234 365.112 302.234 382.481C302.234 386.623 305.592 389.981 309.734 389.981H369.731C373.873 389.981 377.231 386.623 377.231 382.481C377.232 365.113 363.102 350.982 345.733 350.982ZM319.04 374.981C321.775 369.644 327.335 365.982 333.733 365.982H345.733C352.131 365.982 357.691 369.644 360.427 374.981H319.04Z" fill="white"/>
</g>
<defs>
<clipPath id="clip0_201_2">
<rect width="389.981" height="389.981" fill="white"/>
</clipPath>
</defs>
</svg>
