<svg width="800" height="800" viewBox="0 0 800 800" fill="none" xmlns="http://www.w3.org/2000/svg">
<path d="M400 798.517C388.613 798.517 377.983 795.58 368.117 790.447L267.15 732.493C251.967 724.423 259.558 721.49 264.113 720.02C284.61 713.42 288.406 711.953 309.662 700.213C311.939 698.747 314.976 699.48 317.253 700.947L394.687 745.697C397.723 747.163 401.517 747.163 403.797 745.697L706.693 576.237C709.73 574.77 711.25 571.837 711.25 568.167V229.981C711.25 226.313 709.73 223.379 706.693 221.912L403.797 53.1853C400.76 51.7183 396.963 51.7183 394.687 53.1853L91.7872 221.912C88.7509 223.379 87.2326 227.047 87.2326 229.981V568.167C87.2326 571.103 88.7509 574.77 91.7872 576.237L174.534 622.453C219.324 644.46 247.412 618.787 247.412 593.11V259.325C247.412 254.923 251.208 250.522 256.522 250.522H295.238C299.793 250.522 304.348 254.19 304.348 259.325V593.11C304.348 651.063 271.705 684.81 214.769 684.81C197.308 684.81 183.644 684.81 144.928 666.47L65.2172 622.453C45.4796 611.45 33.3333 590.91 33.3333 568.9V230.715C33.3333 208.707 45.4796 188.167 65.2172 177.163L368.117 7.70273C387.093 -2.56758 412.907 -2.56758 431.883 7.70273L734.783 177.163C754.52 188.167 766.667 208.707 766.667 230.715V568.9C766.667 590.91 754.52 611.45 734.783 622.453L431.883 791.913C422.017 796.313 410.627 798.517 400 798.517ZM493.373 565.967C360.523 565.967 333.195 507.28 333.195 457.397C333.195 452.993 336.99 448.593 342.307 448.593H381.78C386.337 448.593 390.13 451.527 390.13 455.927C396.203 494.807 413.663 513.883 494.133 513.883C557.903 513.883 585.23 499.943 585.23 466.933C585.23 447.86 577.64 433.92 478.193 424.383C395.447 416.313 343.823 398.707 343.823 334.887C343.823 275.464 395.447 240.252 481.987 240.252C579.157 240.252 626.983 272.53 633.057 342.953C633.057 345.157 632.297 347.357 630.78 349.557C629.26 351.023 626.983 352.49 624.707 352.49H585.23C581.437 352.49 577.64 349.557 576.88 345.89C567.77 305.541 544.237 292.337 481.987 292.337C412.147 292.337 403.797 315.812 403.797 333.417C403.797 354.693 413.663 361.293 507.8 373.033C601.173 384.77 645.203 401.643 645.203 464.73C644.443 529.287 589.787 565.967 493.373 565.967Z" fill="white"/>
</svg>
