<svg width="800" height="800" viewBox="0 0 800 800" fill="none" xmlns="http://www.w3.org/2000/svg">
<path d="M607.375 248.225C607.125 252.1 605.325 255.525 602.6 257.9L602.575 257.925C599.3 261.5 594.925 264 589.975 264.875L589.85 264.9C589.15 265 588.325 265.075 587.5 265.075C587.475 265.075 587.425 265.075 587.4 265.075C579.6 265.075 572.9 260.35 570.05 253.575L570 253.45C569.25 247.925 578.25 243.75 587.525 242.45C596.8 241.15 606.625 242.725 607.375 248.225ZM359.625 261.075C356.6 268.85 349.175 274.275 340.475 274.275C340.375 274.275 340.3 274.275 340.2 274.275H340.225C339.325 274.275 338.475 274.2 337.6 274.1H337.7C331.175 272.925 325.625 269.325 321.95 264.3L321.9 264.225C319.85 261.875 318.6 258.75 318.6 255.375V255.35C318.9 253.425 319.975 251.775 321.475 250.725L321.5 250.7C325.3 248.6 329.85 247.375 334.7 247.375C336.775 247.375 338.8 247.6 340.75 248.025L340.575 248C350.45 249.375 360.65 254.05 359.675 261.075H359.625ZM635.075 452.15L632.4 448.8L631.3 447.425C642.725 426.275 649.425 401.1 649.425 374.4C649.425 362.2 648.025 350.35 645.375 338.95L645.575 340C643.825 328.675 642.8 315.6 642.8 302.3C642.8 302.125 642.8 301.95 642.8 301.775C643.375 289.25 644.7 277.55 646.75 266.075L646.5 267.725C648.725 256.125 650 242.775 650 229.125C650 227.85 650 226.6 649.975 225.35V225.55C650.275 224.325 650.45 222.95 650.45 221.5C650.45 220.825 650.4 220.175 650.35 219.525V219.6C640.35 180.1 621.575 145.875 596.15 117.775L596.325 117.975C573.55 91.2749 545.55 69.75 513.825 54.9L512.325 54.275C529.725 50.55 549.725 48.425 570.225 48.425C572.1 48.425 573.975 48.45 575.85 48.475H575.575C576.7 48.45 578 48.425 579.325 48.425C638.775 48.425 691.725 76.15 725.975 119.375L726.275 119.775C726.975 120.675 727.675 121.7 728.275 122.775L728.35 122.9C750.95 165.25 719.725 318.95 635.05 452.2L635.075 452.15ZM627.925 233.05C627.525 244.425 626.325 255.2 624.425 265.725L624.625 264.35C622.675 274.975 621.275 287.625 620.7 300.475L620.675 301.1C620.675 301.525 620.675 302 620.675 302.5C620.675 316.675 621.725 330.6 623.775 344.2L623.575 342.675C625.7 352.1 626.925 362.9 626.925 374.025C626.925 393.1 623.325 411.35 616.75 428.075L617.1 427.075C615.2 423.8 613.225 419.85 611.5 415.75L611.225 415.025C609.575 411.05 606 404.625 601.075 395.775C581.85 361.275 536.8 280.5 559.85 247.55C571.7 230.6 601.75 229.875 627.9 233.075L627.925 233.05ZM610.15 522.675C608.875 496.7 618.55 493.975 628.8 491.1C630.217 490.717 631.625 490.292 633.025 489.825C634.275 490.925 635.65 492 637.075 492.95L637.2 493.025C652.7 499.85 670.75 503.8 689.75 503.8C704.55 503.8 718.775 501.4 732.075 496.95L731.125 497.225C722.525 504.55 712.725 510.825 702.125 515.675L701.35 516C685.25 522.6 666.575 526.725 647.025 527.35H646.775C643.8 527.8 640.375 528.075 636.9 528.075C627.25 528.075 618.05 526.075 609.725 522.475L610.175 522.65L610.15 522.675ZM582.325 573.325C581.8 578.85 581.2 585.075 580.4 591.95L575.85 605.65C575.5 606.65 575.3 607.8 575.275 609C575.3 609.675 575.3 610.45 575.3 611.225C575.3 620.1 573.975 628.7 571.525 636.775L571.675 636.15C568.775 645.875 566.775 657.15 566.1 668.775L566.075 669.175C564.775 711.275 532.2 745.35 490.875 749.025L490.55 749.05C443.2 759.2 434.8 733.525 427.4 710.875C426.65 708.508 425.85 706.15 425 703.8C421 687.5 418.7 668.775 418.7 649.525C418.7 640.525 419.2 631.65 420.175 622.9L420.075 623.975C420.225 620.775 420.3 617 420.3 613.225C420.3 587.575 416.45 562.825 409.275 539.525L409.75 541.3C409.883 532.133 410.083 522.85 410.35 513.45C410.35 513.375 410.35 513.25 410.35 513.15C410.35 512 410.175 510.9 409.85 509.85L409.875 509.925C409.525 507.425 409.05 505.225 408.425 503.1L408.5 503.425C404.975 490.4 396.1 479.9 384.4 474.325L384.125 474.2C379.725 472 374.525 470.7 369 470.7C366.4 470.7 363.875 470.975 361.45 471.525L361.675 471.475C364.875 459.725 368.175 450.125 371.975 440.775L371.325 442.6L372.975 438.175C374.825 433.175 377.15 428 379.625 422.525C393.275 394.425 401.25 361.4 401.25 326.5C401.25 303.05 397.65 280.45 390.975 259.2L391.4 260.775C386.825 233.075 363.025 212.2 334.375 212.2C329.875 212.2 325.475 212.725 321.275 213.7L321.675 213.625C301.775 216.225 283.775 222.075 267.4 230.675L268.275 230.25C266.208 231.3 264.167 232.383 262.15 233.5C264.425 179.825 284.55 131.25 316.675 93.1249L316.375 93.475C319.325 90.5 322.425 87.675 325.625 85.025L325.85 84.85C327.575 84.5 329.1 83.7999 330.4 82.8249L330.375 82.8499C352.7 66.4999 380.725 56.6749 411.05 56.6749C413.475 56.6749 415.875 56.7249 418.25 56.8499L417.925 56.825C431.075 57.025 443.775 57.925 456.275 59.525L454.6 59.35C505.675 69.175 549.275 95.9249 580.4 133.425L580.675 133.775C599.375 155.5 614.525 180.95 624.825 208.725L625.375 210.45C618.95 208.725 611.575 207.725 603.975 207.725C579.4 207.725 557.275 218.125 541.725 234.75L541.675 234.8C510.675 279.125 558.65 365.175 581.7 406.525C585.925 414.1 589.575 420.65 590.725 423.425C597.225 438.45 605.4 451.375 615.225 462.85L615.05 462.65C617.225 465.375 619.325 468 620.95 470.3C608.425 473.9 585.925 482.25 587.975 523.95C587.6 528.825 586.65 537.9 585.375 549.4C584.025 556.125 582.925 564.325 582.3 572.65L582.25 573.35L582.325 573.325ZM352.275 430.475L350.625 434.875C347.2 443.075 343.65 453.5 340.7 464.175L340.225 466.2C317.9 465.875 297.85 456.325 283.7 441.175L283.65 441.125C267.85 424.45 258.15 401.875 258.15 377.025C258.15 372.075 258.525 367.225 259.275 362.475L259.2 363C261.625 345 263.025 324.225 263.025 303.1C263.025 290.55 262.525 278.125 261.575 265.825L261.675 267.45C261.525 264.775 261.375 262.425 261.3 260.575C281.425 245.3 306.9 236.075 334.525 236.075C337.825 236.075 341.075 236.2 344.3 236.45L343.875 236.425C357.725 239.65 368.15 251.125 369.8 265.25L369.825 265.4C375.775 283.6 379.2 304.55 379.2 326.275C379.2 357.925 371.925 387.875 358.975 414.575L359.5 413.375C356.875 419.2 354.4 424.7 352.275 430.425V430.475ZM286.85 555.075C281.725 553.775 277.225 551.875 273.125 549.4L273.35 549.525C277.65 547.7 282.725 546.175 287.975 545.2L288.45 545.125C328.55 536.875 334.725 531.05 348.25 513.875C351.35 509.95 354.85 505.475 359.725 500.05C360.725 498.925 361.525 497.575 362 496.075L362.025 496C367.35 491.275 370.525 492.575 375.675 494.7C381.35 497.825 385.55 503.1 387.175 509.375L387.2 509.55C387.775 511.175 388.125 513.025 388.125 514.975C388.125 518.1 387.25 521.025 385.75 523.5L385.8 523.425C369.675 545.475 343.9 559.65 314.825 559.65C304.825 559.65 295.2 557.975 286.225 554.875L286.85 555.075ZM99.175 396.15C82.9 346.525 69.65 287.65 61.825 227.05L61.3 222.075C59.775 214.025 58.925 204.75 58.925 195.3C58.925 150.15 78.65 109.625 109.95 81.875L110.1 81.75C167.475 41.1749 261.3 64.85 300.925 77.675L300.625 77.9749C262.25 124.775 238.975 185.275 238.975 251.175C238.975 253.425 239 255.675 239.05 257.925V257.6C239.05 260.175 239.25 263.825 239.55 268.825C240.375 279.075 240.85 291.025 240.85 303.1C240.85 323.15 239.55 342.9 237 362.275L237.25 360C236.425 365.15 235.975 371.1 235.975 377.15C235.975 407.925 248.025 435.9 267.7 456.575L267.65 456.525C270.167 459.158 272.792 461.633 275.525 463.95C264.7 475.55 241.15 501.2 216.1 531.35C198.375 552.675 186.125 548.575 182.1 547.25C164.975 538.05 151.55 523.775 143.65 506.475L143.425 505.925C126.325 474.625 111.275 438.225 100.175 400.125L99.2 396.2L99.175 396.15ZM761.125 485.075C760.65 483.65 760.05 482.425 759.325 481.3L759.375 481.375C755.025 473.15 744.475 470.7 727.9 474.125C676.25 484.775 656.25 478.225 649 473.525C689.425 412.225 721.95 341.225 742.775 265.375L744 260.15C752.475 227.325 768.925 150.075 747.825 112.325C746.35 109.525 744.775 107.125 743.025 104.875L743.1 104.975C704.025 56.0999 644.4 25.075 577.525 25.075C575.625 25.075 573.725 25.1 571.85 25.15H572.125C571.075 25.125 569.85 25.125 568.6 25.125C535.05 25.125 502.775 30.625 472.65 40.75L474.775 40.125C469.425 39.125 464.05 38.275 458.65 37.575C446.45 35.25 432.325 33.8 417.875 33.575H417.675C415.6 33.475 413.175 33.425 410.725 33.425C377.85 33.425 347.275 43.275 321.8 60.2L322.4 59.8249C295.625 49.7999 172.8 8.42495 96.775 62.2749C59.55 94.0249 36.125 140.95 36.125 193.375C36.125 203.5 37 213.425 38.675 223.075L38.525 222.05C46.9 289.5 60.5 350.2 79.325 408.575L77.35 401.475C89.675 444.375 104.925 481.5 123.65 516.475L122.125 513.375C132.95 537.975 151.675 557.475 175.025 569L175.675 569.3C179.875 570.525 184.7 571.25 189.7 571.25C208.25 571.25 224.5 561.475 233.6 546.775L233.725 546.55C258.75 516.45 283.4 489.5 294.475 477.6C307.025 484.575 321.9 488.875 337.75 489.375H337.9L337.925 489.5C335.292 492.633 332.717 495.817 330.2 499.05C319.6 512.5 317.4 515.275 283.325 522.3C273.625 524.3 247.875 529.6 247.5 547.65C247.5 547.75 247.5 547.85 247.5 547.975C247.5 551.65 248.575 555.075 250.425 557.95L250.375 557.875C258.175 567.75 269.15 574.825 281.725 577.575L282.1 577.65C292.075 580.9 303.575 582.775 315.475 582.775C342.975 582.775 368.125 572.825 387.575 556.325L387.425 556.45C386.825 566.9 386.5 579.15 386.5 591.475C386.5 635.3 390.775 678.15 398.9 719.6L398.225 715.425C407.775 749.75 438.625 774.6 475.325 774.925H475.375C484.6 774.85 493.525 773.775 502.125 771.825L501.3 771.975C549.275 767.7 587.075 729.35 590.475 681.5L590.5 681.2C595.2 654 603.05 591.375 607.325 553.075C607.525 551.45 608.175 550 609.125 548.8L609.1 548.825C609.125 548.8 611.275 547.35 622.45 549.775L623.825 550L631.75 550.7L632.225 550.725C634.6 550.825 637.4 550.9 640.2 550.9C665.8 550.9 690.25 545.9 712.575 536.8L711.3 537.25C731.425 527.925 767.7 505 761.125 485.075Z" fill="white"/>
</svg>
