<svg width="800" height="800" viewBox="0 0 800 800" fill="none" xmlns="http://www.w3.org/2000/svg">
<path d="M480.3 661.175L473.125 671.475L470.625 684.275L473.125 697.075L480.3 707.375L490.6 714.55L503.4 717.05L516.2 714.55L526.5 707.375L533.675 697.075L536.175 684.275L533.675 671.475L526.5 661.175L516.2 654L503.4 651.5L490.6 654L480.3 661.175ZM682.425 216L691.175 217.875L701.175 221.625L712.1 227.25L723.35 235.675L734.6 246.6L745.525 261.275L755.525 279.7L764.275 302.5L770.825 330L775.2 362.5L776.75 400.925L774.875 439.35L769.875 471.85L762.375 498.725L752.375 520.9L741.125 538.7L728.625 552.75L715.5 563.05L702.375 570.55L689.875 575.55L678.625 578.35L668.625 579.9L661.125 580.525L656.125 580.225H399.325V605.85H581.775L582.075 692.075L582.7 703.325L581.15 713.95L577.725 723.625L572.425 732.675L564.625 740.475L554.95 747.975L543.075 754.225L529.325 759.525L513.4 764.2L495.275 768.25L475.275 771.05L453.1 773.225L429.05 774.475L402.8 774.775L363.125 773.525L329.7 769.15L301.575 762.9L278.775 755.1L260.35 745.725L246.3 735.425L235.675 724.8L227.875 714.175L222.875 703.875L219.75 694.5L218.5 686.7L217.875 680.45L218.175 676.4V509.575L219.75 489.575L223.8 472.7L230.35 458.325L238.475 446.45L247.85 436.45L258.15 428.95L269.075 422.7L280 418.325L290.3 415.2L299.675 413.325L307.8 412.075L314.35 411.45L318.4 411.15H500.85L522.4 409.6L540.825 405.225L556.45 398.675L569.25 389.925L579.55 379.925L587.975 369L594.225 357.75L598.9 346.5L602.025 335.575L604.2 325.575L605.45 316.825L606.075 310.275V214.675H671.375L675.75 214.975L682.425 216ZM273.475 92.6L266.3 102.9L263.8 115.7L266.3 128.5L273.475 139.125L283.775 146L296.575 148.8L309.375 145.975L319.675 139.1L326.85 128.475L329.35 115.675L326.85 102.875L319.675 92.575L309.375 85.7L296.575 82.9L283.775 85.7L273.475 92.6ZM470.3 30.725L498.425 36.975L521.225 45.1L539.65 54.475L553.7 64.475L564.325 75.1L572.125 85.725L577.125 96.025L580.25 105.4L581.5 113.525L582.125 119.775L581.825 123.825V290.65L580.275 310.325L576.225 327.5L569.675 341.875L561.55 353.75L552.175 363.425L541.875 371.225L530.95 377.15L520.025 381.525L509.725 384.65L500.35 386.825L492.225 388.075L485.65 388.7H299.15L277.6 390.25L259.175 394.625L243.55 401.5L230.75 409.925L220.45 419.925L212.025 430.85L205.775 442.1L201.1 453.65L197.975 464.575L195.8 474.575L194.55 483L193.925 489.55V585.15H124.25L117.7 584.225L108.95 582.05L98.95 578.3L88.025 572.675L76.775 564.55L65.525 553.3L54.6 538.925L44.6 520.5L35.85 497.7L29.3 470.2L24.925 437.4L23.375 398.975L25.25 360.875L30.25 328.375L37.75 301.2L47.75 279.025L59 261.225L71.5 247.475L84.625 237.175L97.75 229.675L110.25 224.675L121.5 221.55L131.5 220L139 219.7H144L145.875 220H400.8V194.075H218.35L218.05 108.175L217.425 96.625L218.975 86L222.4 76.325L227.7 67.575L235.5 59.45L245.175 52.275L257.05 46.025L270.8 40.4L286.725 35.725L304.85 31.975L324.85 28.85L347.025 26.975L371.075 25.725L397.325 25.1L437 26.675L470.3 30.725Z" fill="white"/>
</svg>
