<svg width="800" height="800" viewBox="0 0 800 800" fill="none" xmlns="http://www.w3.org/2000/svg">
<g clip-path="url(#clip0_308_12)">
<path d="M561.28 551.84C589.856 548.992 612 525.056 612 495.968C612 494.816 611.968 493.664 611.904 492.512V492.672C610.4 461.856 585.216 437.44 554.272 437.12H552.192C521.216 438.272 496.544 463.648 496.544 494.784C496.544 495.488 496.544 496.192 496.576 496.928V496.832C497.408 511.968 503.616 525.536 513.28 535.776L513.248 535.744C475.264 606.592 417.216 662.464 346.72 696.736L344.512 697.696C306.368 718.816 260.864 731.232 212.448 731.232C200.192 731.232 188.096 730.432 176.288 728.896L177.696 729.056C134.144 724.864 96.64 702.048 72.832 668.768L72.544 668.32C55.36 644.16 45.088 614.08 45.088 581.568C45.088 554.784 52.064 529.632 64.32 507.808L63.936 508.576C81.44 475.424 105.312 447.84 134.144 426.592L134.816 426.144C129.344 411.648 124.448 394.176 120.992 376.224L120.64 374.112C-29.216 481.28 -14.016 627.872 31.488 697.152C71.264 747.904 132.576 780.224 201.44 780.224C204.576 780.224 207.68 780.16 210.784 780.032H210.336C211.456 780.064 212.8 780.064 214.144 780.064C234.848 780.064 254.976 777.664 274.304 773.152L272.512 773.504C400.768 750.016 505.792 667.36 559.68 555.456L560.704 553.088L561.28 551.84Z" fill="white"/>
<path d="M741.76 425.568C664.864 337.888 552.64 282.848 427.52 282.848C423.712 282.848 419.872 282.912 416.096 283.008H416.672H399.456C390.4 264.864 371.936 252.608 350.624 252.608C349.984 252.608 349.376 252.608 348.736 252.64H348.832H347.584C316.672 253.088 291.776 278.24 291.776 309.216C291.776 310.144 291.808 311.04 291.84 311.936V311.808C293.28 342.624 318.464 367.104 349.44 367.424H351.968C374.816 366.528 394.112 352.32 402.432 332.416L402.56 332.032H421.28C503.008 332.128 578.848 357.216 641.568 400.128L640.224 399.264C689.216 430.624 727.04 475.68 748.768 529.024L749.44 530.88C757.76 548.224 762.592 568.576 762.592 590.048C762.592 612.768 757.184 634.208 747.552 653.152L747.904 652.352C723.04 703.104 671.776 737.408 612.512 737.408C610.336 737.408 608.192 737.376 606.048 737.28H606.368C569.984 736.512 535.648 728.512 504.512 714.656L506.176 715.328C494.048 725.44 473.824 742.08 459.136 752.224C497.984 771.296 543.552 782.912 591.712 784.032H592.096C593.984 784.096 596.192 784.128 598.4 784.128C680.064 784.128 751.584 740.768 791.232 675.84L791.808 674.848C802.752 648.896 809.088 618.752 809.088 587.104C809.088 523.744 783.616 466.336 742.368 424.576L742.4 424.608L741.92 425.632L741.76 425.568Z" fill="white"/>
<path d="M219.008 570.112C220.416 600.96 245.664 625.504 276.704 625.728H278.752C309.728 624.672 334.464 599.264 334.464 568.128C334.464 536.448 308.896 510.72 277.248 510.496H275.104C274.784 510.464 274.4 510.464 274.048 510.464C271.712 510.464 269.472 510.816 267.36 511.52L267.52 511.488C233.28 455.776 213.024 388.288 213.024 316.064C213.024 304.416 213.536 292.896 214.592 281.536L214.496 283.008C217.408 222.016 239.808 166.752 275.52 122.784L275.136 123.296C306.848 89.024 351.52 67.2 401.344 65.6H401.632C510.816 63.552 556.352 199.616 559.872 253.696L610.496 268.832C598.72 103.04 495.616 16 397.024 16C296.8 21.216 213.632 88.64 185.12 180.192L184.672 181.856C170.656 222.24 162.528 268.768 162.528 317.184C162.528 400 186.24 477.28 227.2 542.592L226.176 540.832C221.6 547.744 218.88 556.224 218.88 565.344C218.88 567.04 218.976 568.704 219.168 570.336L219.136 570.144L219.008 570.112Z" fill="white"/>
</g>
<defs>
<clipPath id="clip0_308_12">
<rect width="800" height="800" fill="white"/>
</clipPath>
</defs>
</svg>
